<svg xmlns="http://www.w3.org/2000/svg" width="392" height="312" viewBox="0 0 392 312" opacity=".03">
	<path fill="#fff" d="M.25 312c-1.115-53.106 1.66-100.66 8.3-142.72C29.56 56.434 90.435.01 191.15.01l-9.96 56.423c-27.676 0-48.97 7.209-63.91 21.574-14.94 14.391-25.185 36.51-30.71 66.38l-6.64 39.83h76.36l-21.58 127.782zm200.86 0c-1.116-53.106 1.66-100.66 8.3-142.72C230.418 56.434 291.293.01 392.007.01l-11.62 56.423c-27.675 0-48.97 7.209-63.91 21.574-14.94 14.391-25.184 36.51-30.709 66.38l-6.64 39.83h78.02l-21.58 127.782z"/>
</svg>